# xmcd
#
# Track frame offsets: 
#        150
#        14052
#        35597
#        52601
#        64450
#        76683
#        86583
#        101907
#        114054
#        137058
#        148413
#        162626
#        177944
#
# Disc length: 2815 seconds
#
# Revision: 15
# Processed by: cddbd v1.5.2PL0 Copyright (c) Steve Scherf et al.
# Submitted via: ExactAudioCopy v1.0b3
#
DISCID=b20afd0d
DTITLE=Paul McCartney - Chaos and Creation in the Backyard
DYEAR=2005
DGENRE=Rock
TTITLE0=Fine Line
TTITLE1=How Kind of You
TTITLE2=Jenny Wren
TTITLE3=At the Mercy
TTITLE4=Friends to Go
TTITLE5=English Tea
TTITLE6=Too Much Rain
TTITLE7=A Certain Softness
TTITLE8=Riding to Vanity Fair
TTITLE9=Follow Me
TTITLE10=Promise to You Girl
TTITLE11=This Never Happened Before
TTITLE12=Anyway
EXTD=YEAR: 2005
EXTT0=
EXTT1=
EXTT2=
EXTT3=
EXTT4=
EXTT5=
EXTT6=
EXTT7=
EXTT8=
EXTT9=
EXTT10=
EXTT11=
EXTT12=
PLAYORDER=
